<?xml version="1.0" encoding="utf-8"?>
<svg viewbox="0 0 79 79" version="1.1" xmlns:xlink="http://www.w3.org/1999/xlink" xmlns="http://www.w3.org/2000/svg">
  <defs>
    <filter id="filter_1">
      <feColorMatrix in="SourceGraphic" type="matrix" values="0 0 0 0 0.4627451 0 0 0 0 0.4627451 0 0 0 0 0.4627451 0 0 0 1 0" />
    </filter>
  </defs>
    <path d="M17.237 0.25856L76.035 16.0135Q76.1301 16.0389 76.2183 16.0824Q76.3065 16.126 76.3846 16.1859Q76.4627 16.2457 76.5275 16.3197Q76.5924 16.3937 76.6416 16.4789Q76.6908 16.5641 76.7224 16.6573Q76.7541 16.7505 76.7669 16.848Q76.7797 16.9456 76.7733 17.0437Q76.7669 17.1419 76.7414 17.237L60.9865 76.035Q60.9611 76.1301 60.9176 76.2183Q60.874 76.3066 60.8141 76.3846Q60.7542 76.4627 60.6803 76.5276Q60.6063 76.5924 60.5211 76.6416Q60.4359 76.6908 60.3427 76.7225Q60.2495 76.7541 60.152 76.7669Q60.0544 76.7798 59.9562 76.7733Q59.8581 76.7669 59.763 76.7414L0.96496 60.9865Q0.869919 60.9611 0.781674 60.9175Q0.693428 60.874 0.615367 60.8141Q0.537307 60.7542 0.472432 60.6803Q0.407557 60.6063 0.358361 60.5211Q0.309164 60.4359 0.277537 60.3427Q0.245909 60.2495 0.233067 60.152Q0.220224 60.0544 0.226659 59.9562Q0.233094 59.8581 0.25856 59.763L16.0134 0.96496Q16.0389 0.86992 16.0824 0.781674Q16.126 0.693428 16.1859 0.615368Q16.2457 0.537307 16.3197 0.472432Q16.3937 0.407557 16.4789 0.358361Q16.5641 0.309164 16.6573 0.277537Q16.7505 0.24591 16.848 0.233067Q16.9456 0.220224 17.0437 0.226659Q17.1419 0.233094 17.237 0.25856L17.237 0.25856Z" transform="scale(0.99999994 0.99999994)" id="Rectangle" fill="none" fill-rule="evenodd" stroke="#767676" stroke-width="2" />
    <path d="M3.71219 0.258561L12.035 2.48867Q12.1301 2.51413 12.2183 2.55765Q12.3066 2.60117 12.3846 2.66107Q12.4627 2.72097 12.5276 2.79494Q12.5924 2.86892 12.6416 2.95413Q12.6908 3.03934 12.7225 3.13251Q12.7541 3.22568 12.7669 3.32323Q12.7798 3.42078 12.7733 3.51897Q12.7669 3.61715 12.7414 3.71219L10.5113 12.035Q10.4859 12.1301 10.4424 12.2183Q10.3988 12.3066 10.3389 12.3846Q10.279 12.4627 10.2051 12.5276Q10.1311 12.5924 10.0459 12.6416Q9.96067 12.6908 9.86749 12.7225Q9.77432 12.7541 9.67677 12.7669Q9.57922 12.7798 9.48104 12.7733Q9.38286 12.7669 9.28782 12.7414L0.96496 10.5113Q0.86992 10.4859 0.781674 10.4424Q0.693428 10.3988 0.615367 10.3389Q0.537307 10.279 0.472432 10.2051Q0.407557 10.1311 0.358361 10.0459Q0.309164 9.96067 0.277537 9.86749Q0.24591 9.77432 0.233067 9.67677Q0.220224 9.57922 0.226659 9.48104Q0.233095 9.38286 0.258561 9.28782L2.48867 0.96496Q2.51413 0.869919 2.55765 0.781674Q2.60117 0.693428 2.66107 0.615367Q2.72097 0.537307 2.79494 0.472432Q2.86892 0.407557 2.95413 0.358361Q3.03934 0.309164 3.13251 0.277537Q3.22568 0.24591 3.32323 0.233067Q3.42078 0.220224 3.51897 0.226659Q3.61715 0.233095 3.71219 0.258561L3.71219 0.258561Z" transform="matrix(0.99999994 0 0 0.99999994 31.999985 32)" id="Rectangle-Copy" fill="none" fill-rule="evenodd" stroke="#767676" stroke-width="2" />
</svg>